<svg xmlns="http://www.w3.org/2000/svg" width="40.268" height="40.268" viewBox="0 0 40.268 40.268">
  <path id="logo" d="M27.684,7.55a7.55,7.55,0,1,0-7.55,7.55A7.55,7.55,0,0,0,27.684,7.55ZM18.371,18.962C13.705,16.105,6.147,15.321,2.344,15.1A2.176,2.176,0,0,0,0,17.235V34.758a2.163,2.163,0,0,0,2.083,2.127c3.434.18,10.381.84,15.182,3.258a1.1,1.1,0,0,0,1.611-.934V19.863a1.046,1.046,0,0,0-.5-.9ZM37.924,15.1c-3.8.215-11.361,1-16.027,3.858a1.066,1.066,0,0,0-.5.915V39.207a1.1,1.1,0,0,0,1.615.936c4.8-2.416,11.744-3.076,15.177-3.256a2.164,2.164,0,0,0,2.083-2.128V17.235A2.177,2.177,0,0,0,37.924,15.1Z"/>
</svg>
